<?xml version="1.0" encoding="UTF-8" standalone="no"?>
<!-- Created with Inkscape (http://www.inkscape.org/) -->

<svg
   xmlns:dc="http://purl.org/dc/elements/1.1/"
   xmlns:cc="http://creativecommons.org/ns#"
   xmlns:rdf="http://www.w3.org/1999/02/22-rdf-syntax-ns#"
   xmlns:svg="http://www.w3.org/2000/svg"
   xmlns="http://www.w3.org/2000/svg"
   xmlns:xlink="http://www.w3.org/1999/xlink"
   xmlns:sodipodi="http://sodipodi.sourceforge.net/DTD/sodipodi-0.dtd"
   xmlns:inkscape="http://www.inkscape.org/namespaces/inkscape"
   width="793.70081"
   height="1122.5197"
   viewBox="0 0 210 297"
   version="1.1"
   id="svg8"
   inkscape:version="0.92.3 (2405546, 2018-03-11)"
   sodipodi:docname="icon.svg">
  <defs
     id="defs2">
    <linearGradient
       inkscape:collect="always"
       id="linearGradient834-8">
      <stop
         style="stop-color:#4d2e00;stop-opacity:1"
         offset="0"
         id="stop830" />
      <stop
         style="stop-color:#a66300;stop-opacity:1"
         offset="1"
         id="stop832" />
    </linearGradient>
    <linearGradient
       inkscape:collect="always"
       xlink:href="#linearGradient834-8"
       id="linearGradient836"
       x1="-138.45244"
       y1="257.12601"
       x2="-36.367039"
       y2="155.02905"
       gradientUnits="userSpaceOnUse"
       gradientTransform="matrix(0.45797221,0,0,0.45797221,-75.914283,139.53306)" />
    <clipPath
       clipPathUnits="userSpaceOnUse"
       id="clipPath1988">
      <rect
         style="opacity:1;fill:#eabc00;fill-opacity:1;stroke:none;stroke-width:1;stroke-miterlimit:4;stroke-dasharray:none;stroke-dashoffset:0;stroke-opacity:1"
         id="rect1990"
         width="37.685001"
         height="39.956795"
         x="-201.92212"
         y="384.93167" />
    </clipPath>
  </defs>
  <sodipodi:namedview
     id="base"
     pagecolor="#ffffff"
     bordercolor="#666666"
     borderopacity="1.0"
     inkscape:pageopacity="0.0"
     inkscape:pageshadow="2"
     inkscape:zoom="2.8"
     inkscape:cx="-549.2288"
     inkscape:cy="227.4109"
     inkscape:document-units="px"
     inkscape:current-layer="layer1"
     showgrid="false"
     units="px"
     inkscape:pagecheckerboard="true"
     showborder="false"
     inkscape:window-width="2400"
     inkscape:window-height="1271"
     inkscape:window-x="2391"
     inkscape:window-y="-9"
     inkscape:window-maximized="1" />
  <metadata
     id="metadata5">
    <rdf:RDF>
      <cc:Work
         rdf:about="">
        <dc:format>image/svg+xml</dc:format>
        <dc:type
           rdf:resource="http://purl.org/dc/dcmitype/StillImage" />
        <dc:title></dc:title>
      </cc:Work>
    </rdf:RDF>
  </metadata>
  <g
     inkscape:label="Layer 1"
     inkscape:groupmode="layer"
     id="layer1">
    <path
       style="opacity:1;fill:url(#linearGradient836);fill-opacity:1;stroke-width:0.12117181"
       d="m -135.14998,245.5522 v -11.87487 h -2.45304 -2.45304 l 3.96768,-3.96904 3.96769,-3.96905 v -7.23935 -7.23936 h 4.90744 4.90751 v 2.3316 2.33167 l 2.88873,-2.88695 2.8888,-2.88689 12.04063,11.73337 12.040636,11.73343 -2.50928,0.032 -2.509346,0.032 v 11.87233 11.8724 h -18.84217 -18.84224 z"
       id="path828"
       inkscape:connector-curvature="0"
       inkscape:export-xdpi="96"
       inkscape:export-ydpi="96" />
    <circle
       style="opacity:1;fill:#eabc00;fill-opacity:1;stroke:none;stroke-width:0.45797226;stroke-miterlimit:4;stroke-dasharray:none;stroke-dashoffset:0;stroke-opacity:1"
       id="path1971"
       cx="-102.84268"
       cy="219.73555"
       r="13.586625"
       inkscape:export-xdpi="96"
       inkscape:export-ydpi="96" />
    <path
       style="fill:#000000;stroke-width:0.04408597"
       d="m -218.63727,435.64533 v -2.2043 h 35.26878 35.26878 v 2.2043 2.2043 h -35.26878 -35.26878 z m 3.32849,1.1853 c 0.097,-0.0267 0.26165,-0.10598 0.36592,-0.1761 0.10427,-0.0701 0.21924,-0.12748 0.2555,-0.12748 0.0363,0 0.11462,-0.0487 0.17413,-0.10821 0.10331,-0.10331 0.10821,-0.13309 0.10821,-0.65743 v -0.54923 l -0.21669,-0.25933 c -0.40346,-0.48285 -0.91608,-0.64729 -1.42217,-0.4562 -0.85119,0.3214 -1.07452,1.40289 -0.42073,2.03737 0.29976,0.29091 0.75384,0.40744 1.15583,0.29661 z m -1.0272,-0.48874 c -0.0666,-0.0666 -0.0727,-1.01804 -0.007,-1.14031 0.0343,-0.0641 0.0929,-0.0853 0.23564,-0.0853 0.13402,0 0.21352,-0.026 0.2698,-0.0882 0.0637,-0.0704 0.13578,-0.0882 0.35797,-0.0882 0.23306,0 0.28583,0.0143 0.32536,0.0882 0.0383,0.0716 0.0923,0.0882 0.28656,0.0882 0.19154,0 0.24849,0.017 0.28501,0.0853 0.0251,0.0469 0.0456,0.31402 0.0456,0.5936 0,0.45746 -0.009,0.5129 -0.0853,0.55397 -0.12522,0.067 -1.64559,0.0606 -1.71343,-0.007 z m 1.08496,-0.139 c 0.13172,-0.0731 0.27223,-0.28736 0.27259,-0.41569 6.7e-4,-0.2054 -0.12253,-0.40694 -0.2918,-0.47767 -0.44791,-0.18715 -0.8585,0.23297 -0.65232,0.66746 0.1178,0.24824 0.43748,0.35578 0.67153,0.2259 z m -0.52405,-0.15739 c -0.0954,-0.0954 -0.12887,-0.1707 -0.12887,-0.28995 0,-0.224 0.19483,-0.41882 0.41882,-0.41882 0.22399,0 0.41881,0.19482 0.41881,0.41882 0,0.22399 -0.19482,0.41881 -0.41881,0.41881 -0.11926,0 -0.19455,-0.0335 -0.28995,-0.12886 z m 0.51238,-0.0675 c 0.0595,-0.0595 0.10821,-0.15961 0.10821,-0.22243 0,-0.14699 -0.18365,-0.33065 -0.33064,-0.33065 -0.14699,0 -0.33065,0.18366 -0.33065,0.33065 0,0.14698 0.18366,0.33064 0.33065,0.33064 0.0628,0 0.16291,-0.0487 0.22243,-0.10821 z m -0.39283,-0.0272 c -0.0671,-0.0528 -0.11616,-0.13549 -0.11616,-0.19578 0,-0.14517 0.0645,-0.17144 0.0731,-0.0297 0.009,0.14675 0.17208,0.28367 0.29677,0.24889 0.0742,-0.0207 0.0796,-0.0166 0.0269,0.0204 -0.096,0.0672 -0.15033,0.0587 -0.28061,-0.0437 z m 0.9419,-0.59196 c 0,-0.0367 -0.0392,-0.0661 -0.0882,-0.0661 -0.049,0 -0.0882,0.0294 -0.0882,0.0661 0,0.0367 0.0392,0.0661 0.0882,0.0661 0.049,0 0.0882,-0.0294 0.0882,-0.0661 z m 2.73333,1.06454 v -0.19192 l 0.21841,0.021 c 0.19592,0.0188 0.23149,0.008 0.34548,-0.10609 0.0699,-0.0699 0.13909,-0.15664 0.15377,-0.19278 0.0226,-0.0556 0.0343,-0.0537 0.0759,0.0121 0.16298,0.25774 0.42631,0.34979 0.66995,0.23417 0.27195,-0.12905 0.37005,-0.42325 0.23087,-0.69238 -0.0663,-0.12822 -0.2888,-0.25886 -0.44087,-0.25886 -0.12935,0 -0.35779,0.13395 -0.41694,0.24447 -0.0724,0.13523 -0.10164,0.13559 -0.17307,0.002 -0.13323,-0.24893 -0.52349,-0.31223 -0.74431,-0.12071 -0.1457,0.12637 -0.1837,0.28788 -0.1837,0.78076 v 0.46003 h 0.13225 c 0.1267,0 0.13226,-0.008 0.13226,-0.19192 z m 0.098,-0.44983 c -0.10924,-0.0765 -0.13582,-0.31676 -0.0451,-0.4075 0.0754,-0.0754 0.32265,-0.0655 0.38991,0.0156 0.0852,0.10269 0.07,0.31993 -0.0277,0.39381 -0.10991,0.0832 -0.19647,0.0827 -0.31717,-0.002 z m 0.9354,-0.0835 c -0.086,-0.13129 -0.0518,-0.26548 0.0918,-0.35955 0.15778,-0.10338 0.3467,-0.003 0.36572,0.19526 0.0182,0.18887 -0.055,0.27235 -0.23884,0.27235 -0.10831,0 -0.16683,-0.0289 -0.21869,-0.10806 z m 2.71393,0.52636 v -0.19891 l 0.17585,0.0281 c 0.22724,0.0363 0.42786,-0.047 0.53457,-0.22195 l 0.0828,-0.13578 1.7e-4,0.18737 c 1.6e-4,0.17876 0.006,0.18736 0.13242,0.18736 h 0.13226 v -0.30499 c 0,-0.37046 0.025,-0.44447 0.14993,-0.44447 0.082,0 0.11462,0.0559 0.21844,0.37473 0.11551,0.35468 0.1288,0.37473 0.24837,0.37473 h 0.12632 l -0.15608,-0.46611 c -0.17255,-0.51529 -0.26092,-0.61015 -0.47677,-0.5118 l -0.11021,0.0502 v -0.28561 -0.28562 h -0.13226 -0.13226 l -0.001,0.45188 c -10e-4,0.44086 -0.003,0.44847 -0.0701,0.31173 -0.0713,-0.14464 -0.29014,-0.27866 -0.45496,-0.27866 -0.17224,0 -0.39286,0.12336 -0.46292,0.25885 -0.0505,0.0976 -0.0691,0.26471 -0.0691,0.62068 v 0.48713 h 0.13226 c 0.12741,0 0.13226,-0.007 0.13226,-0.1989 z m 0.0882,-0.46239 c -0.17625,-0.17625 -0.0704,-0.44086 0.17635,-0.44086 0.0693,0 0.15713,0.0312 0.19523,0.0693 0.10283,0.10283 0.0877,0.30963 -0.0287,0.39113 -0.13187,0.0924 -0.23696,0.0864 -0.34288,-0.0195 z m -5.32398,0.2618 c 0.0565,-0.0258 0.14176,-0.10505 0.18944,-0.17623 0.10603,-0.15825 0.12195,-0.15951 0.19893,-0.0157 0.0662,0.12363 0.25225,0.23872 0.38599,0.23872 0.0461,0 0.14626,-0.0218 0.22262,-0.0484 0.11271,-0.0393 0.13884,-0.0725 0.13884,-0.17634 0,-0.14952 0.0103,-0.14616 -0.19065,-0.0622 -0.0865,0.0362 -0.16719,0.0498 -0.17924,0.0303 -0.012,-0.0195 0.0841,-0.14667 0.21369,-0.2826 l 0.23559,-0.24715 -0.0969,-0.0911 c -0.21197,-0.19913 -0.61453,-0.13356 -0.75384,0.12279 -0.0579,0.10661 -0.0629,0.0825 -0.0645,-0.3144 l -0.002,-0.42984 h -0.13226 -0.13226 v 0.26652 0.26651 l -0.14717,-0.0276 c -0.29472,-0.0553 -0.60229,0.18301 -0.60229,0.46664 0,0.36214 0.39427,0.62655 0.7158,0.48006 z m -0.38715,-0.28183 c -0.1261,-0.1261 -0.13374,-0.18842 -0.0396,-0.32285 0.0902,-0.12885 0.34838,-0.13675 0.41477,-0.0127 0.0755,0.14108 0.0532,0.30123 -0.0523,0.37513 -0.13442,0.0941 -0.19674,0.0865 -0.32283,-0.0396 z m 0.93023,-0.21142 c 0.0472,-0.15387 0.10871,-0.20941 0.23205,-0.20941 h 0.11346 l -0.14955,0.15431 c -0.17241,0.17788 -0.23937,0.19671 -0.19596,0.0551 z m 3.22958,0.45016 c 0.0637,-0.0593 0.0965,-0.14223 0.0965,-0.24395 0,-0.12935 -0.0248,-0.16868 -0.1543,-0.24511 -0.0849,-0.0501 -0.1543,-0.11884 -0.1543,-0.15282 0,-0.0797 0.041,-0.0782 0.13266,0.005 0.0658,0.0596 0.0813,0.0578 0.14884,-0.0168 0.0694,-0.0767 0.0697,-0.0889 0.004,-0.15459 -0.19351,-0.19351 -0.51464,-0.086 -0.54147,0.18132 -0.0133,0.13272 0.0401,0.19825 0.28419,0.34886 0.0651,0.0402 0.0708,0.0621 0.0279,0.10697 -0.0438,0.0457 -0.0697,0.0423 -0.13612,-0.0178 -0.077,-0.0697 -0.0864,-0.0695 -0.15312,0.004 -0.0777,0.0859 -0.0566,0.14545 0.0788,0.22221 0.13312,0.0755 0.2592,0.0627 0.36642,-0.0372 z m 0.44917,-0.41709 v -0.50699 h -0.13226 -0.13225 v 0.50699 0.50698 h 0.13225 0.13226 z m 0.66129,0.38225 c 0,-0.10101 -0.0189,-0.12407 -0.0992,-0.12124 -0.0903,0.003 -0.10038,-0.0192 -0.11242,-0.24999 -0.0128,-0.24579 -0.01,-0.2535 0.0992,-0.2535 0.0955,0 0.11241,-0.0199 0.11241,-0.13226 0,-0.11168 -0.0171,-0.13225 -0.11021,-0.13225 -0.0962,0 -0.11022,-0.0193 -0.11022,-0.15201 0,-0.14975 -0.002,-0.15132 -0.13226,-0.1059 -0.0975,0.034 -0.13225,0.074 -0.13225,0.152 0,0.0582 -0.0198,0.10591 -0.0441,0.10591 -0.0242,0 -0.0441,0.0595 -0.0441,0.13225 0,0.0727 0.0198,0.13226 0.0441,0.13226 0.0246,0 0.0444,0.12169 0.0448,0.27554 3.4e-4,0.15155 0.0153,0.29707 0.0331,0.32339 0.0548,0.0809 0.20268,0.14779 0.32997,0.1492 0.104,0.001 0.12123,-0.0164 0.12123,-0.1234 z m 2.84058,0.0389 c 0.23774,-0.15672 0.29743,-0.36573 0.18278,-0.6401 -0.0648,-0.15508 -0.25975,-0.28807 -0.42228,-0.28807 -0.24374,0 -0.48495,0.25218 -0.48495,0.50699 0,0.25986 0.23212,0.50154 0.48495,0.50493 0.0606,8.3e-4 0.16839,-0.0369 0.2395,-0.0837 z m -0.31701,-0.18162 c -0.0548,-0.0212 -0.12205,-0.088 -0.14954,-0.1483 -0.11512,-0.25267 0.23672,-0.45409 0.42664,-0.24423 0.15441,0.17062 -0.0613,0.47621 -0.2771,0.39253 z m 1.13557,0.13569 c 0,-0.11034 -0.0161,-0.13004 -0.0992,-0.12124 -0.0913,0.01 -0.10025,-0.01 -0.11242,-0.24299 -0.0128,-0.24579 -0.01,-0.2535 0.0992,-0.2535 0.0955,0 0.11242,-0.0199 0.11242,-0.13226 0,-0.11168 -0.0171,-0.13225 -0.11022,-0.13225 -0.0962,0 -0.11021,-0.0193 -0.11021,-0.15201 0,-0.14975 -0.002,-0.15132 -0.13226,-0.1059 -0.0974,0.034 -0.13226,0.074 -0.13226,0.152 0,0.0582 -0.0198,0.10591 -0.0441,0.10591 -0.0242,0 -0.0441,0.0595 -0.0441,0.13225 0,0.0727 0.0198,0.13226 0.0441,0.13226 0.0245,0 0.0441,0.11823 0.0441,0.26652 0,0.2242 0.0172,0.28371 0.10821,0.37474 0.0675,0.0675 0.15871,0.1082 0.24248,0.1082 0.11967,0 0.13426,-0.0143 0.13426,-0.13173 z m 0.70162,0.0675 c 0.1343,-0.0695 0.26837,-0.30524 0.26811,-0.47151 -3.4e-4,-0.15722 -0.14912,-0.3682 -0.30551,-0.43298 -0.28509,-0.11809 -0.66352,0.12242 -0.66406,0.42204 -3.3e-4,0.18113 0.10152,0.3798 0.23705,0.46245 0.16493,0.10057 0.29756,0.10628 0.46441,0.02 z m -0.37606,-0.23407 c -0.0955,-0.0629 -0.11498,-0.23123 -0.0399,-0.34574 0.099,-0.15104 0.32296,-0.1334 0.41576,0.0327 0.0581,0.10403 0.057,0.1282 -0.0107,0.23146 -0.0753,0.11486 -0.25399,0.15478 -0.36515,0.0815 z m 1.19741,0.19005 c 0.0595,-0.0595 0.10821,-0.14438 0.10821,-0.18858 0,-0.1145 -0.12304,-0.27501 -0.24692,-0.32211 -0.0582,-0.0221 -0.10577,-0.0705 -0.10577,-0.10743 0,-0.08 0.0208,-0.0828 0.1403,-0.0188 0.0692,0.037 0.10486,0.0339 0.15195,-0.0131 0.0526,-0.0527 0.0485,-0.0755 -0.0289,-0.1586 -0.11397,-0.12233 -0.26171,-0.12369 -0.41412,-0.004 -0.17061,0.1342 -0.14433,0.3316 0.0626,0.47007 0.0849,0.0568 0.16091,0.12189 0.169,0.14468 0.0204,0.0574 -0.15705,0.0524 -0.19282,-0.006 -0.019,-0.0307 -0.058,-0.0208 -0.11281,0.0289 -0.11197,0.10133 -0.10597,0.1355 0.0374,0.2133 0.17645,0.0957 0.30916,0.0838 0.43184,-0.0389 z m 35.68404,-0.15342 c 0.0251,-0.0469 0.0456,-0.18576 0.0456,-0.3086 0,-0.20065 -0.0101,-0.22385 -0.0992,-0.22855 -0.23581,-0.0124 -0.29576,0.0343 -0.29691,0.23128 -8.3e-4,0.1408 0.0998,0.23341 0.21952,0.20209 0.0582,-0.0152 0.0884,-0.002 0.0884,0.0403 0,0.0894 -0.12067,0.12512 -0.20002,0.0593 -0.0366,-0.0304 -0.0804,-0.0415 -0.0973,-0.0246 -0.0169,0.0169 -0.002,0.0492 0.0341,0.0717 0.1081,0.0684 0.25743,0.0474 0.30577,-0.0429 z m -0.23625,-0.2029 c -0.0389,-0.0389 -0.0705,-0.0942 -0.0701,-0.12276 0.002,-0.19174 0.23297,-0.21503 0.25505,-0.0258 0.0183,0.15673 -0.0899,0.24359 -0.18493,0.14853 z m 11.78833,0.15885 c 0,-0.0601 0.0356,-0.0894 0.12043,-0.0992 0.0859,-0.01 0.1328,-0.0494 0.16362,-0.13752 0.061,-0.17454 -0.0124,-0.27161 -0.21161,-0.27982 l -0.16061,-0.007 v 0.3042 c 0,0.17341 0.0189,0.3042 0.0441,0.3042 0.0243,0 0.0441,-0.0384 0.0441,-0.0852 z m 0.0182,-0.19548 c -0.0444,-0.11557 0.001,-0.22626 0.0926,-0.22626 0.0678,0 0.0876,0.0297 0.0876,0.13165 0,0.14424 -0.13414,0.21466 -0.18021,0.0946 z m 1.9216,0.19668 c 0,-0.0601 0.0233,-0.078 0.0816,-0.0627 0.0999,0.0261 0.227,-0.0926 0.227,-0.21199 0,-0.17302 -0.0808,-0.25606 -0.24328,-0.24995 l -0.15349,0.006 v 0.30146 c 0,0.17158 0.019,0.30146 0.0441,0.30146 0.0242,0 0.0441,-0.0378 0.0441,-0.084 z m 0.0182,-0.19668 c -0.0443,-0.11557 0.001,-0.22626 0.0926,-0.22626 0.0678,0 0.0876,0.0297 0.0876,0.13165 0,0.14424 -0.13414,0.21466 -0.18021,0.0946 z m -15.22784,-0.16013 c 0,-0.17635 -0.0189,-0.30861 -0.0441,-0.30861 -0.0252,0 -0.0441,0.13226 -0.0441,0.30861 0,0.17634 0.0189,0.3086 0.0441,0.3086 0.0252,0 0.0441,-0.13226 0.0441,-0.3086 z m 0.22043,0.13087 c 0,-0.12229 0.022,-0.18618 0.0706,-0.20481 0.0927,-0.0356 0.15404,0.0657 0.13152,0.21701 -0.01,0.0666 -0.001,0.1315 0.0196,0.14428 0.0207,0.0128 0.0437,-0.0615 0.0512,-0.16511 0.0111,-0.15445 0.0295,-0.18837 0.10178,-0.18837 0.0712,0 0.0933,0.0382 0.11462,0.19838 l 0.0264,0.19839 0.007,-0.23722 0.007,-0.23722 -0.1535,0.0249 c -0.0844,0.0137 -0.16386,0.008 -0.17655,-0.0124 -0.0127,-0.0205 -0.0775,-0.0229 -0.14409,-0.005 -0.10732,0.0285 -0.12254,0.0555 -0.13446,0.23861 -0.008,0.12388 0.005,0.20645 0.0331,0.20645 0.0256,0 0.0465,-0.08 0.0465,-0.17773 z m 1.01391,-0.006 c 0,-0.15019 -0.088,-0.30073 -0.17582,-0.30073 -0.094,0 -0.17649,0.06 -0.17332,0.12595 0.002,0.0457 0.0117,0.0521 0.0257,0.0173 0.0321,-0.0796 0.23532,-0.0701 0.23532,0.011 0,0.0364 -0.0381,0.0661 -0.0846,0.0661 -0.13945,0 -0.22404,0.0489 -0.22404,0.12963 0,0.11378 0.0427,0.13703 0.22821,0.12435 0.16257,-0.0111 0.16844,-0.0172 0.1685,-0.17368 z m -0.30853,0.077 c 0,-0.0608 0.16222,-0.142 0.20274,-0.10148 0.0109,0.0109 0.007,0.0524 -0.008,0.0922 -0.0341,0.089 -0.19471,0.0966 -0.19471,0.009 z m 1.27849,0.0411 c 0.0636,-0.0766 -0.002,-0.0905 -0.0764,-0.0162 -0.064,0.064 -0.18813,0.0174 -0.18813,-0.0706 0,-0.0478 0.0451,-0.0675 0.15431,-0.0675 0.19758,0 0.20874,-0.16046 0.0161,-0.23134 -0.18199,-0.067 -0.34851,0.256 -0.20565,0.39886 0.0733,0.0733 0.23386,0.0662 0.29979,-0.0132 z m -0.25349,-0.2535 c 0.0101,-0.0303 0.0547,-0.0551 0.0992,-0.0551 0.0444,0 0.0891,0.0248 0.0992,0.0551 0.0116,0.0349 -0.0247,0.0551 -0.0992,0.0551 -0.0745,0 -0.11083,-0.0202 -0.0992,-0.0551 z m 0.73844,0.011 c 0,-0.17634 -0.0189,-0.3086 -0.0441,-0.3086 -0.0252,0 -0.0441,0.13226 -0.0441,0.3086 0,0.17634 0.0189,0.3086 0.0441,0.3086 0.0252,0 0.0441,-0.13226 0.0441,-0.3086 z m 0.5633,0.23997 c 0.0726,-0.0508 0.098,-0.11291 0.098,-0.23932 0,-0.21851 -0.0915,-0.30925 -0.31175,-0.30925 h -0.1732 v 0.3086 0.3086 h 0.14449 c 0.0795,0 0.18858,-0.0309 0.24247,-0.0686 z m -0.34287,-0.25935 c 0,-0.24067 0.002,-0.24514 0.12686,-0.24514 0.16822,0 0.23451,0.0897 0.21764,0.29451 -0.0132,0.15986 -0.0222,0.16909 -0.17918,0.18208 l -0.16532,0.0137 z m 0.66129,0.2839 c 0,-0.0242 -0.0198,-0.0441 -0.0441,-0.0441 -0.0242,0 -0.0441,0.0198 -0.0441,0.0441 0,0.0242 0.0198,0.0441 0.0441,0.0441 0.0242,0 0.0441,-0.0198 0.0441,-0.0441 z m 0.60884,-0.4154 -0.0137,-0.15087 -0.11022,0.0916 c -0.10727,0.0891 -0.10757,0.0909 -0.011,0.0668 0.0935,-0.0233 0.0996,-0.0104 0.10661,0.22462 0.006,0.18856 0.0116,0.20906 0.0247,0.084 0.01,-0.0909 0.0111,-0.23321 0.004,-0.31619 z m 0.64283,0.36043 c 0.0352,-0.0562 0.0345,-0.099 -0.003,-0.15825 -0.0294,-0.0471 -0.0352,-0.10639 -0.0138,-0.14106 0.0561,-0.0907 -0.0344,-0.21886 -0.15463,-0.21886 -0.12853,0 -0.20846,0.12043 -0.15109,0.22764 0.0254,0.0475 0.024,0.0858 -0.004,0.10293 -0.0613,0.0379 -0.0554,0.16969 0.0106,0.23563 0.0743,0.0743 0.25594,0.0466 0.31516,-0.048 z m -0.27817,-0.0265 c -0.03,-0.056 -0.0277,-0.0973 0.007,-0.13225 0.11257,-0.11258 0.27956,-0.005 0.20593,0.13225 -0.024,0.0448 -0.0719,0.0814 -0.1066,0.0814 -0.0347,0 -0.0826,-0.0366 -0.1066,-0.0814 z m 0.0411,-0.2709 c -0.08,-0.0494 -0.0182,-0.18657 0.0759,-0.16844 0.0422,0.008 0.0829,0.0468 0.0905,0.0859 0.0161,0.0837 -0.0841,0.13342 -0.16638,0.0826 z m 0.61661,0.0868 v -0.30962 l -0.11022,0.0722 c -0.13092,0.0858 -0.14929,0.17426 -0.022,0.10616 0.0832,-0.0446 0.0882,-0.0335 0.0882,0.19683 0,0.13422 0.01,0.24403 0.022,0.24403 0.0121,0 0.022,-0.13933 0.022,-0.30962 z m 0.5643,0.25671 c 0.0291,-0.0291 0.0529,-0.10633 0.0529,-0.17162 0,-0.12156 -0.0673,-0.17225 -0.22875,-0.17225 -0.0633,0 -0.0815,-0.0203 -0.0625,-0.0697 0.0147,-0.0384 0.0268,-0.0774 0.0268,-0.0868 0,-0.009 0.0286,-0.006 0.0635,0.007 0.0349,0.0134 0.0994,0.003 0.14328,-0.0221 0.0664,-0.0386 0.0525,-0.0467 -0.0829,-0.0478 -0.17595,-0.002 -0.18591,0.006 -0.22765,0.18147 -0.0259,0.10874 -0.0181,0.11624 0.11514,0.11021 0.12518,-0.006 0.14472,0.009 0.15695,0.11502 0.0177,0.15413 -0.109,0.21761 -0.19624,0.0983 -0.0326,-0.0446 -0.0722,-0.0681 -0.0881,-0.0523 -0.0486,0.0485 0.077,0.16317 0.17875,0.16317 0.0528,0 0.11981,-0.0238 0.14891,-0.0529 z m 0.51103,-0.0461 c 0.0352,-0.0562 0.0345,-0.099 -0.003,-0.15825 -0.0294,-0.0471 -0.0352,-0.10639 -0.0138,-0.14106 0.0629,-0.10172 -0.0369,-0.22577 -0.16926,-0.21048 -0.10038,0.0116 -0.11867,0.0352 -0.1209,0.15589 -0.002,0.0782 -0.0163,0.15593 -0.0331,0.17267 -0.0483,0.0483 -0.0354,0.16947 0.0244,0.22926 0.0742,0.0743 0.25593,0.0466 0.31516,-0.048 z m -0.26585,-0.0112 c -0.0349,-0.091 0.0124,-0.19839 0.0875,-0.19839 0.0342,0 0.0868,0.0298 0.11699,0.0661 0.0438,0.0528 0.0438,0.0795 0,0.13226 -0.0302,0.0364 -0.0828,0.0661 -0.11699,0.0661 -0.0342,0 -0.0735,-0.0298 -0.0875,-0.0661 z m 0.0288,-0.28619 c -0.08,-0.0495 -0.0182,-0.18657 0.0759,-0.16844 0.0422,0.008 0.0829,0.0468 0.0905,0.0859 0.0161,0.0837 -0.0841,0.13342 -0.16638,0.0826 z m 0.67958,0.32713 c 0.0787,-0.0787 0.0918,-0.33526 0.0236,-0.46266 -0.0894,-0.16699 -0.35113,-0.0801 -0.35113,0.11654 0,0.13166 0.10764,0.2107 0.24126,0.17716 0.10412,-0.0261 0.10739,-0.0216 0.0596,0.0833 -0.0518,0.11364 -0.14216,0.14531 -0.19068,0.0668 -0.015,-0.0242 -0.0483,-0.0441 -0.0741,-0.0441 -0.0296,0 -0.0266,0.0244 0.008,0.0661 0.0711,0.0857 0.19594,0.0843 0.28341,-0.003 z m -0.18807,-0.23401 c -0.0913,-0.0578 -0.0461,-0.24779 0.059,-0.24779 0.068,0 0.0882,0.0294 0.0882,0.12858 0,0.13755 -0.0518,0.17955 -0.14714,0.11921 z m 0.65412,0.24083 c 0,-0.0344 0.0248,-0.074 0.0551,-0.0882 0.0441,-0.0206 0.0441,-0.0309 0,-0.0514 -0.0319,-0.0149 -0.0551,-0.10777 -0.0551,-0.22043 0,-0.10709 -0.0149,-0.19427 -0.0331,-0.19374 -0.0442,10e-4 -0.29327,0.3749 -0.28239,0.42361 0.005,0.0211 0.0429,0.0383 0.0849,0.0383 0.10336,0 0.19369,0.0629 0.16258,0.11326 -0.0139,0.0226 -0.004,0.041 0.0213,0.041 0.0257,0 0.0467,-0.0281 0.0467,-0.0624 z m -0.19662,-0.26469 c 0.0918,-0.14005 0.14008,-0.14542 0.13069,-0.0145 -0.005,0.0663 -0.0399,0.10401 -0.10615,0.11371 -0.0967,0.0142 -0.0973,0.0118 -0.0245,-0.0992 z m 0.68157,0.26469 c 0,-0.0344 0.0248,-0.074 0.0551,-0.0882 0.0441,-0.0206 0.0441,-0.0309 0,-0.0514 -0.0319,-0.0149 -0.0551,-0.10777 -0.0551,-0.22043 0,-0.10709 -0.0149,-0.19451 -0.0331,-0.19427 -0.0452,6.6e-4 -0.32338,0.40728 -0.29678,0.43387 0.0117,0.0117 0.0659,0.0262 0.12045,0.0323 0.0546,0.006 0.11343,0.0127 0.13086,0.0147 0.0174,0.002 0.0203,0.0334 0.006,0.0698 -0.014,0.0364 -0.003,0.0661 0.0234,0.0661 0.0268,0 0.0488,-0.0281 0.0488,-0.0624 z m -0.17906,-0.28642 c 0.0533,-0.0748 0.1024,-0.13607 0.10913,-0.13607 0.007,0 0.009,0.0546 0.006,0.12123 -0.005,0.091 -0.0319,0.12493 -0.10913,0.13608 l -0.10282,0.0148 z m 0.75218,0.30565 c 0,-0.0238 -0.0595,-0.0363 -0.13226,-0.0278 -0.0727,0.008 -0.13226,0.006 -0.13226,-0.006 0,-0.0118 0.0595,-0.0892 0.13226,-0.17209 0.0727,-0.0829 0.13226,-0.17574 0.13226,-0.20642 0,-0.0854 -0.0951,-0.16158 -0.20181,-0.16158 -0.10174,0 -0.2273,0.11462 -0.17875,0.16317 0.0158,0.0158 0.0555,-0.008 0.0881,-0.0523 0.0716,-0.0979 0.20431,-0.0616 0.20431,0.056 0,0.0448 -0.0694,0.14292 -0.15431,0.21805 -0.0849,0.0751 -0.1543,0.15814 -0.1543,0.18446 0,0.0273 0.0851,0.0478 0.19839,0.0478 0.10911,0 0.19839,-0.0194 0.19839,-0.0432 z m 2.01252,-0.089 c 0.0146,-0.0727 0.0413,-0.13225 0.0595,-0.13225 0.0182,0 0.045,0.0595 0.0595,0.13225 0.0366,0.18284 0.093,0.16537 0.15708,-0.0487 0.0298,-0.0995 0.0648,-0.20862 0.0778,-0.24247 0.013,-0.0339 0.001,-0.0615 -0.0263,-0.0615 -0.0274,0 -0.0619,0.0599 -0.0765,0.13317 -0.0381,0.19054 -0.0891,0.19917 -0.12263,0.0207 -0.0159,-0.0846 -0.0469,-0.15391 -0.069,-0.15391 -0.0221,0 -0.0531,0.0693 -0.069,0.15391 -0.0335,0.17843 -0.0845,0.1698 -0.12263,-0.0207 -0.0146,-0.0732 -0.0491,-0.13317 -0.0765,-0.13317 -0.0274,0 -0.039,0.0285 -0.0256,0.0634 0.0134,0.0349 0.046,0.14397 0.0726,0.24247 0.057,0.2117 0.12475,0.23133 0.16165,0.0468 z m 0.66129,0 c 0.0145,-0.0727 0.0413,-0.13225 0.0595,-0.13225 0.0182,0 0.045,0.0595 0.0595,0.13225 0.0366,0.18284 0.093,0.16537 0.15708,-0.0487 0.0298,-0.0995 0.0648,-0.20862 0.0778,-0.24247 0.013,-0.0339 0.003,-0.0615 -0.0217,-0.0615 -0.0249,0 -0.0584,0.0595 -0.0743,0.13225 -0.016,0.0728 -0.0448,0.13226 -0.0641,0.13226 -0.0193,0 -0.047,-0.0595 -0.0615,-0.13226 -0.0356,-0.17801 -0.10628,-0.1672 -0.14171,0.0217 -0.0333,0.17736 -0.0878,0.16803 -0.12953,-0.0222 -0.0159,-0.0725 -0.0462,-0.13175 -0.0674,-0.13175 -0.0212,0 -0.01,0.0942 0.0251,0.20941 0.0349,0.11517 0.0637,0.22428 0.064,0.24247 10e-4,0.0937 0.0945,0.0149 0.1173,-0.0992 z m 0.66129,0 c 0.0145,-0.0727 0.0413,-0.13225 0.0595,-0.13225 0.0182,0 0.045,0.0595 0.0595,0.13225 0.0369,0.18449 0.10466,0.16486 0.16166,-0.0468 0.0265,-0.0985 0.0592,-0.20761 0.0726,-0.24247 0.0134,-0.0349 0.002,-0.0634 -0.0256,-0.0634 -0.0275,0 -0.0618,0.0595 -0.0764,0.13225 -0.0145,0.0728 -0.0413,0.13226 -0.0595,0.13226 -0.0182,0 -0.045,-0.0595 -0.0595,-0.13226 -0.0356,-0.17801 -0.10628,-0.1672 -0.14171,0.0217 -0.0335,0.17843 -0.0845,0.1698 -0.12262,-0.0207 -0.0147,-0.0732 -0.0491,-0.13317 -0.0765,-0.13317 -0.0274,0 -0.039,0.0285 -0.0256,0.0634 0.0134,0.0349 0.046,0.14397 0.0726,0.24247 0.057,0.2117 0.12475,0.23133 0.16165,0.0468 z m 0.50038,0.0882 c 0,-0.0242 -0.0198,-0.0441 -0.0441,-0.0441 -0.0242,0 -0.0441,0.0198 -0.0441,0.0441 0,0.0242 0.0198,0.0441 0.0441,0.0441 0.0242,0 0.0441,-0.0198 0.0441,-0.0441 z m 0.48494,-0.29327 c 0,-0.18657 -0.0187,-0.32394 -0.0441,-0.32394 -0.0242,0 -0.0441,0.0477 -0.0441,0.10609 0,0.0815 -0.0189,0.10115 -0.0816,0.0847 -0.10523,-0.0275 -0.227,0.0948 -0.227,0.22798 0,0.14303 0.10717,0.23729 0.26471,0.23281 l 0.13206,-0.004 v -0.32394 z m -0.29042,0.18888 c -0.0444,-0.11557 0.001,-0.22626 0.0926,-0.22626 0.0678,0 0.0876,0.0297 0.0876,0.13166 0,0.14423 -0.13414,0.21465 -0.18021,0.0946 z m 0.75228,0.0771 c 0.0917,-0.0917 0.0574,-0.12717 -0.055,-0.057 -0.092,0.0574 -0.23056,0.0294 -0.23056,-0.0466 0,-0.025 0.0794,-0.0455 0.17634,-0.0455 0.19216,0 0.23117,-0.0711 0.10707,-0.19524 -0.21218,-0.21217 -0.5008,0.11165 -0.29862,0.33505 0.0902,0.0997 0.20671,0.10326 0.30072,0.009 z m -0.26347,-0.28132 c 0.015,-0.0242 0.0646,-0.0441 0.11022,-0.0441 0.0456,0 0.0952,0.0198 0.11021,0.0441 0.0159,0.0258 -0.0298,0.0441 -0.11021,0.0441 -0.0804,0 -0.12616,-0.0183 -0.11022,-0.0441 z m 1.27535,0.28342 c 0.14101,-0.14102 0.0411,-0.41567 -0.15116,-0.41567 -0.11318,0 -0.22043,0.11796 -0.22043,0.24247 0,0.12451 0.10725,0.24247 0.22043,0.24247 0.045,0 0.11305,-0.0312 0.15116,-0.0693 z m -0.2653,-0.0794 c -0.049,-0.12772 0.001,-0.2261 0.11475,-0.2261 0.0924,0 0.10961,0.0208 0.10961,0.13226 0,0.10367 -0.0215,0.13531 -0.0994,0.14637 -0.0583,0.008 -0.10997,-0.0134 -0.12497,-0.0525 z m 0.72253,0.0957 c 0.0908,-0.0908 0.0587,-0.16393 -0.1014,-0.23082 -0.19065,-0.0797 -0.20091,-0.1334 -0.0185,-0.0969 0.0975,0.0195 0.13072,0.0117 0.11778,-0.0276 -0.0247,-0.0751 -0.2005,-0.095 -0.27712,-0.0314 -0.0854,0.0708 -0.0128,0.2005 0.13259,0.23699 0.0613,0.0154 0.11138,0.0474 0.11138,0.0712 0,0.0635 -0.20967,0.0528 -0.23277,-0.0119 -0.0108,-0.0303 -0.0351,-0.0407 -0.054,-0.0231 -0.054,0.0503 0.0669,0.16639 0.17316,0.16639 0.0528,0 0.11981,-0.0238 0.14891,-0.0529 z m 0.22925,-0.18957 c 0,-0.13336 -0.0198,-0.24247 -0.0441,-0.24247 -0.0242,0 -0.0441,0.10911 -0.0441,0.24247 0,0.13336 0.0198,0.24247 0.0441,0.24247 0.0242,0 0.0441,-0.10911 0.0441,-0.24247 z m 0.3086,0.19839 c 0,-0.0242 -0.0198,-0.0441 -0.0441,-0.0441 -0.0641,0 -0.0541,-0.29656 0.011,-0.32697 0.0441,-0.0206 0.0441,-0.0309 0,-0.0514 -0.0303,-0.0141 -0.0551,-0.0677 -0.0551,-0.11904 0,-0.0732 -0.0115,-0.0818 -0.0535,-0.0398 -0.0522,0.0522 -0.0593,0.5058 -0.009,0.587 0.0327,0.0529 0.15078,0.0485 0.15078,-0.006 z m 0.66129,-0.1543 c 0,-0.169 0.0131,-0.19839 0.0882,-0.19839 0.0751,0 0.0882,0.0294 0.0882,0.19839 0,0.10911 0.0198,0.19838 0.0441,0.19838 0.0242,0 0.0441,-0.0868 0.0441,-0.19299 0,-0.20548 -0.0824,-0.32053 -0.19782,-0.27623 -0.0484,0.0186 -0.0667,-0.004 -0.0667,-0.0832 0,-0.0598 -0.0198,-0.10883 -0.0441,-0.10883 -0.0255,0 -0.0441,0.13961 -0.0441,0.33065 0,0.19104 0.0186,0.33064 0.0441,0.33064 0.0242,0 0.0441,-0.0893 0.0441,-0.19838 z m 0.72427,0.12911 c 0.13629,-0.1363 0.0423,-0.41567 -0.13981,-0.41567 -0.10206,0 -0.23177,0.13142 -0.23177,0.23481 0,0.1133 0.12259,0.25013 0.22411,0.25013 0.043,0 0.10937,-0.0312 0.14747,-0.0693 z m -0.26529,-0.0794 c -0.049,-0.12772 0.001,-0.2261 0.11474,-0.2261 0.0924,0 0.10961,0.0208 0.10961,0.13226 0,0.10367 -0.0215,0.13531 -0.0994,0.14637 -0.0583,0.008 -0.10997,-0.0134 -0.12496,-0.0525 z m 0.59908,0.10455 c 0,-0.0242 -0.0198,-0.0441 -0.0441,-0.0441 -0.0641,0 -0.0541,-0.29656 0.011,-0.32697 0.0441,-0.0206 0.0441,-0.0309 0,-0.0514 -0.0303,-0.0141 -0.0551,-0.0538 -0.0551,-0.0882 0,-0.0905 -0.0871,-0.0769 -0.0941,0.0147 -0.01,0.12914 0.0139,0.47182 0.0352,0.50699 0.0297,0.0489 0.14709,0.0401 0.14709,-0.011 z m 0.41567,-0.0252 c 0.14101,-0.14102 0.0411,-0.41567 -0.15115,-0.41567 -0.11319,0 -0.22043,0.11796 -0.22043,0.24247 0,0.12451 0.10724,0.24247 0.22043,0.24247 0.045,0 0.11305,-0.0312 0.15115,-0.0693 z m -0.26529,-0.0794 c -0.049,-0.12772 0.001,-0.2261 0.11474,-0.2261 0.0924,0 0.10961,0.0208 0.10961,0.13226 0,0.10367 -0.0215,0.13531 -0.0994,0.14637 -0.0583,0.008 -0.10996,-0.0134 -0.12496,-0.0525 z m 0.72252,0.0957 c 0.0916,-0.0916 0.0581,-0.16985 -0.10139,-0.2365 -0.19066,-0.0797 -0.20038,-0.12761 -0.0185,-0.0912 0.0975,0.0195 0.13073,0.0117 0.11783,-0.0276 -0.0269,-0.0821 -0.23107,-0.0909 -0.29587,-0.0129 -0.0699,0.0843 5e-4,0.18818 0.14118,0.209 0.13637,0.0201 0.15197,0.12388 0.0186,0.12388 -0.0606,0 -0.11907,-0.0248 -0.1299,-0.0551 -0.0108,-0.0303 -0.0351,-0.0407 -0.054,-0.0231 -0.054,0.0503 0.0669,0.16639 0.17317,0.16639 0.0528,0 0.11981,-0.0238 0.1489,-0.0529 z m 0.22925,0.009 c 0,-0.0242 -0.0198,-0.0441 -0.0441,-0.0441 -0.0242,0 -0.0441,0.0198 -0.0441,0.0441 0,0.0242 0.0198,0.0441 0.0441,0.0441 0.0242,0 0.0441,-0.0198 0.0441,-0.0441 z m 0.41777,-0.0273 c 0.0393,-0.0393 0.0594,-0.0833 0.0448,-0.0979 -0.0146,-0.0146 -0.0427,-5e-4 -0.0625,0.0316 -0.0613,0.0992 -0.20039,0.0383 -0.21571,-0.0944 -0.0161,-0.1399 0.0881,-0.20548 0.19088,-0.12014 0.0531,0.0441 0.0656,0.0417 0.0656,-0.0124 0,-0.0614 -0.0865,-0.12033 -0.1768,-0.12033 -0.0739,0 -0.17589,0.14065 -0.17589,0.24248 0,0.11438 0.1048,0.24247 0.19839,0.24247 0.0329,0 0.0919,-0.0321 0.13121,-0.0714 z m 0.52693,0.002 c 0.14101,-0.14103 0.0411,-0.41569 -0.15115,-0.41569 -0.11319,0 -0.22043,0.11797 -0.22043,0.24248 0,0.1245 0.10724,0.24247 0.22043,0.24247 0.045,0 0.11305,-0.0312 0.15115,-0.0693 z m -0.26529,-0.0794 c -0.049,-0.12772 0.001,-0.22609 0.11474,-0.22609 0.0924,0 0.10961,0.0208 0.10961,0.13225 0,0.10367 -0.0215,0.13531 -0.0994,0.14637 -0.0583,0.008 -0.10996,-0.0134 -0.12496,-0.0525 z m 0.5194,-0.0383 c 0.01,-0.1364 0.0344,-0.19095 0.0907,-0.20162 0.0644,-0.0122 0.0771,0.0188 0.0771,0.18699 0,0.11089 0.0198,0.20162 0.0441,0.20162 0.0242,0 0.0441,-0.0893 0.0441,-0.19839 0,-0.16899 0.0131,-0.19839 0.0882,-0.19839 0.0751,0 0.0882,0.0294 0.0882,0.19839 0,0.10911 0.0198,0.19839 0.0441,0.19839 0.0666,0 0.0558,-0.43939 -0.011,-0.44778 -0.0303,-0.004 -0.16918,-0.01 -0.3086,-0.0131 l -0.25349,-0.006 v 0.2335 c 0,0.27763 0.0772,0.31478 0.0967,0.0465 z m -15.50471,-0.20981 c 0.015,-0.0242 0.006,-0.0441 -0.0194,-0.0441 -0.0257,0 -0.0467,0.0198 -0.0467,0.0441 0,0.0242 0.009,0.0441 0.0194,0.0441 0.0107,0 0.0317,-0.0198 0.0467,-0.0441 z m 11.1758,-0.22042 c 0,-0.0242 -0.0198,-0.0441 -0.0441,-0.0441 -0.0242,0 -0.0441,0.0198 -0.0441,0.0441 0,0.0242 0.0198,0.0441 0.0441,0.0441 0.0242,0 0.0441,-0.0198 0.0441,-0.0441 z m -54.5564,-0.39677 c 0,-0.0808 -0.0265,-0.11398 -0.0994,-0.12433 -0.0596,-0.008 -0.11002,0.0136 -0.12595,0.0551 -0.0439,0.11439 0.0176,0.20893 0.12595,0.19355 0.0729,-0.0104 0.0994,-0.0435 0.0994,-0.12433 z m 24.88653,-13.42925 c -1.02173,-0.18142 -1.76717,-0.55899 -2.4706,-1.25138 -0.64029,-0.63024 -1.00578,-1.24999 -1.2434,-2.10839 -0.0858,-0.31013 -0.0951,-0.47363 -0.11092,-1.95854 l -0.0172,-1.62016 h 4.85614 4.85614 l -0.0178,1.62016 c -0.0175,1.59304 -0.0198,1.62695 -0.13424,2.02603 -0.4501,1.56935 -1.64481,2.75361 -3.2272,3.19898 -0.25908,0.0729 -0.47486,0.089 -1.34462,0.0999 -0.56981,0.007 -1.08562,0.004 -1.14624,-0.007 z m 2.49438,-2.48074 c 0.27746,-0.1692 0.30589,-0.54343 0.0592,-0.77985 l -0.13454,-0.12896 -1.34229,-0.0129 c -1.50357,-0.0144 -1.58051,-0.002 -1.71262,0.27642 -0.12018,0.25327 -0.0769,0.44218 0.14403,0.62896 0.11584,0.0979 0.13156,0.099 1.48375,0.099 1.25954,4e-5 1.37731,-0.006 1.50244,-0.0827 z m 0.50712,-2.11085 c 0.18704,-0.20938 0.17923,-0.44132 -0.0223,-0.66124 l -0.15088,-0.16468 -1.68971,-0.0132 c -0.92935,-0.007 -1.75277,-0.002 -1.82984,0.0124 -0.0771,0.0141 -0.20106,0.0825 -0.27554,0.15213 -0.11205,0.10466 -0.13541,0.16045 -0.13541,0.32329 0,0.21302 0.11442,0.40593 0.28162,0.47482 0.0512,0.0211 0.90318,0.0343 1.89326,0.0294 l 1.80016,-0.009 z m -12.40882,-1.98054 c -0.49842,-0.17217 -0.85866,-0.72305 -0.80677,-1.23373 0.0448,-0.44044 0.15234,-0.59567 1.01281,-1.46129 0.93569,-0.9413 1.08322,-1.04037 1.55237,-1.0425 0.71355,-0.003 1.21298,0.49348 1.21193,1.20533 -6.7e-4,0.47888 -0.0923,0.61567 -1.042,1.55642 -0.45717,0.45286 -0.91146,0.86439 -1.00953,0.91452 -0.25021,0.1279 -0.6489,0.15448 -0.91881,0.0613 z m 20.15255,0.0265 c -0.26365,-0.0621 -0.35911,-0.13979 -1.23682,-1.00641 -0.95358,-0.94152 -1.05703,-1.09302 -1.0562,-1.54668 0.001,-0.6061 0.34872,-1.04988 0.93132,-1.18897 0.2816,-0.0672 0.55661,-0.0367 0.8115,0.0902 0.26701,0.13286 1.76986,1.63195 1.91921,1.9144 0.16416,0.31047 0.1684,0.7862 0.01,1.09681 -0.13777,0.26976 -0.38714,0.48575 -0.69289,0.60014 -0.2513,0.094 -0.41726,0.10384 -0.6859,0.0405 z m -14.58125,-2.4539 -5e-4,-0.82661 -0.16478,-0.10566 c -0.4378,-0.28073 -1.04522,-0.77449 -1.44735,-1.17653 -1.59271,-1.59237 -2.50886,-3.61471 -2.65726,-5.86577 -0.10667,-1.61789 0.16925,-3.06812 0.85693,-4.50402 0.46834,-0.97793 1.04004,-1.78539 1.80185,-2.54497 2.62223,-2.61452 6.43634,-3.40251 9.87782,-2.04073 1.36255,0.53916 2.62596,1.47049 3.6445,2.68656 0.93164,1.11233 1.61104,2.55188 1.91262,4.05257 0.16191,0.80569 0.20135,2.14965 0.0869,2.96262 -0.23593,1.67635 -0.92472,3.26447 -1.98384,4.5741 -0.47856,0.59176 -1.29117,1.33445 -1.92945,1.76344 l -0.29517,0.19839 -0.001,0.82661 -10e-4,0.82661 h -4.84945 -4.84946 l -5e-4,-0.82661 z m 9.26971,-9.81692 c 0.26378,-0.0941 0.47478,-0.28317 0.58836,-0.5271 0.16423,-0.3527 0.14353,-0.55325 -0.11078,-1.07327 -0.11917,-0.24371 -0.25308,-0.48664 -0.29758,-0.53986 -0.0445,-0.0532 -0.11678,-0.13973 -0.16063,-0.19225 -0.94576,-1.13256 -2.14001,-1.77375 -3.59368,-1.92943 -0.53068,-0.0568 -0.70987,-0.028 -1.00191,0.1614 -0.23327,0.15125 -0.36306,0.34769 -0.4232,0.64049 -0.0828,0.40327 0.073,0.77187 0.43336,1.02513 0.15713,0.11044 0.24424,0.13416 0.61655,0.16787 0.55007,0.0498 0.87974,0.13294 1.28359,0.32366 0.6181,0.29192 1.1343,0.78919 1.37187,1.32158 0.23094,0.51752 0.80852,0.79505 1.29405,0.62178 z m -19.02859,2.20247 c -0.23519,-0.0838 -0.4665,-0.27989 -0.61846,-0.5242 -0.1873,-0.30114 -0.2131,-0.76113 -0.0613,-1.09272 0.13197,-0.28827 0.34264,-0.50638 0.60751,-0.62898 0.18381,-0.0851 0.29093,-0.0931 1.41393,-0.10558 1.13592,-0.0127 1.23067,-0.008 1.45484,0.0768 0.82885,0.31217 1.06231,1.36679 0.44027,1.98883 -0.33159,0.33158 -0.43414,0.35091 -1.85054,0.34865 -0.91775,-0.002 -1.25736,-0.0168 -1.38626,-0.0628 z m 26.32151,-0.0422 c -0.26533,-0.13 -0.40251,-0.25679 -0.55205,-0.51027 -0.10192,-0.17276 -0.11704,-0.24678 -0.11704,-0.57312 0,-0.28395 0.021,-0.41709 0.0867,-0.54961 0.13172,-0.26566 0.37987,-0.48699 0.66603,-0.59406 0.24365,-0.0912 0.3139,-0.0951 1.47092,-0.0822 1.12478,0.0125 1.22978,0.0204 1.41343,0.10589 0.75924,0.35349 0.94399,1.37053 0.35581,1.95871 -0.33342,0.33342 -0.43194,0.35183 -1.8736,0.35023 -1.21019,-10e-4 -1.24229,-0.004 -1.45021,-0.10556 z m -20.75025,-8.5906 c -0.0849,-0.032 -0.19117,-0.079 -0.23623,-0.10436 -0.16906,-0.0953 -1.76062,-1.71982 -1.85064,-1.88895 -0.073,-0.13709 -0.094,-0.25487 -0.0946,-0.52903 -6.6e-4,-0.30888 0.0154,-0.38185 0.12925,-0.58739 0.22575,-0.40753 0.57991,-0.61941 1.04144,-0.62304 0.49369,-0.004 0.59547,0.0616 1.52859,0.98283 0.9825,0.97004 1.06956,1.0997 1.06888,1.5919 -6.7e-4,0.49935 -0.23265,0.8825 -0.67247,1.11079 -0.18596,0.0965 -0.71145,0.12368 -0.91419,0.0473 z m 17.27663,-0.002 c -0.49762,-0.18619 -0.80555,-0.63354 -0.80159,-1.16451 0.003,-0.46445 0.11303,-0.62488 1.08036,-1.58175 0.92917,-0.91913 1.03328,-0.98699 1.51409,-0.98699 0.82763,0 1.40179,0.79904 1.14395,1.59201 -0.0691,0.21239 -0.16657,0.32783 -0.92035,1.08957 -0.46371,0.4686 -0.92953,0.90321 -1.03514,0.96579 -0.23301,0.13806 -0.72644,0.18124 -0.98132,0.0859 z m -8.63979,-3.58131 c -0.27578,-0.0849 -0.57728,-0.36084 -0.70625,-0.64625 -0.10316,-0.2283 -0.10533,-0.25905 -0.1051,-1.48956 1.7e-4,-1.18523 0.006,-1.26773 0.0931,-1.4554 0.20986,-0.44937 0.61542,-0.70481 1.11899,-0.70481 0.51149,0 0.87779,0.23444 1.09718,0.70224 l 0.11519,0.2456 v 1.23441 1.23441 l -0.12393,0.25236 c -0.27773,0.56558 -0.87385,0.81656 -1.48922,0.627 z"
       id="path1984"
       inkscape:connector-curvature="0"
       clip-path="url(#clipPath1988)"
       transform="matrix(0.45797224,0,0,0.45797224,-19.061993,33.557792)"
       inkscape:export-xdpi="96"
       inkscape:export-ydpi="96" />
  </g>
</svg>
